<svg xmlns="http://www.w3.org/2000/svg" xmlns:xlink="http://www.w3.org/1999/xlink" x="0" y="0" version="1.1" viewBox="0 0 48 48" style="fill: rgb(243, 156, 18);"><g fill="none" stroke="none" stroke-width="1" stroke-linecap="butt" stroke-linejoin="miter" stroke-miterlimit="10" stroke-dasharray="" stroke-dashoffset="0" font-family="sans-serif" font-weight="normal" font-size="12" text-anchor="start" mix-blend-mode="normal"><g><g><path d="M0,48l0,-48l48,0l0,48z" fill="none"/><g><g fill="#90caf9"><path d="M17.4,33l-2.4,0l0,-4l4,0l0.4,1.5c0.3,1.3 -0.7,2.5 -2,2.5z"/><path d="M37,36c0,0 -11.8,-7 -18,-7l0,-14c5.8,0 18,-7 18,-7z"/></g><g fill="#283593"><circle cx="9" cy="22" transform="scale(1,1)" r="5"/><path d="M40,19l-3,0l0,6l3,0c1.7,0 3,-1.3 3,-3c0,-1.7 -1.3,-3 -3,-3z"/><path d="M18.6,41.2c-0.9,0.6 -2.5,1.2 -4.6,1.4c-0.6,0.1 -1.2,-0.3 -1.4,-1l-4.4,-13.7c0,0 8.8,-6.2 8.8,1.1c0,5.5 1.5,8.4 2.2,9.5c0.5,0.7 0.5,1.6 0,2.3c-0.2,0.2 -0.4,0.3 -0.6,0.4z"/></g><g fill="#3f51b5"><path d="M9,29l10,0l0,-14l-10,0c-1.1,0 -2,0.9 -2,2l0,10c0,1.1 0.9,2 2,2z"/></g><path d="M38,38l0,0c-1.1,0 -2,-0.9 -2,-2l0,-28c0,-1.1 0.9,-2 2,-2l0,0c1.1,0 2,0.9 2,2l0,28c0,1.1 -0.9,2 -2,2z" fill="#42a5f5"/></g><g fill="none"/></g></g></g></svg>